<mxfile host="app.diagrams.net" modified="2021-12-07T19:11:57.537Z" agent="5.0 (Windows NT 10.0; Win64; x64) AppleWebKit/537.36 (KHTML, like Gecko) Chrome/96.0.4664.45 Safari/537.36" etag="AlPH6Qpe_FYgTeHLjZ2f" version="15.9.1" type="github">
  <diagram id="k5pBvkvNhV3B4-awaQkV" name="Page-1">
    <mxGraphModel dx="1278" dy="579" grid="1" gridSize="10" guides="1" tooltips="1" connect="1" arrows="1" fold="1" page="1" pageScale="1" pageWidth="850" pageHeight="1100" math="0" shadow="0">
      <root>
        <mxCell id="0" />
        <mxCell id="1" parent="0" />
        <mxCell id="vDC2IEThmlu0xpvRNLi6-4" value="" style="edgeStyle=orthogonalEdgeStyle;rounded=0;orthogonalLoop=1;jettySize=auto;html=1;" edge="1" parent="1" source="vDC2IEThmlu0xpvRNLi6-1" target="vDC2IEThmlu0xpvRNLi6-5">
          <mxGeometry relative="1" as="geometry">
            <mxPoint x="375" y="210" as="targetPoint" />
          </mxGeometry>
        </mxCell>
        <mxCell id="vDC2IEThmlu0xpvRNLi6-1" value="Actor" style="shape=umlActor;verticalLabelPosition=bottom;verticalAlign=top;html=1;outlineConnect=0;" vertex="1" parent="1">
          <mxGeometry x="360" y="40" width="30" height="60" as="geometry" />
        </mxCell>
        <mxCell id="vDC2IEThmlu0xpvRNLi6-2" value="Modify user&lt;br&gt;" style="text;html=1;strokeColor=none;fillColor=none;align=center;verticalAlign=middle;whiteSpace=wrap;rounded=0;" vertex="1" parent="1">
          <mxGeometry x="40" y="35" width="60" height="30" as="geometry" />
        </mxCell>
        <mxCell id="vDC2IEThmlu0xpvRNLi6-7" value="" style="edgeStyle=orthogonalEdgeStyle;rounded=0;orthogonalLoop=1;jettySize=auto;html=1;" edge="1" parent="1" source="vDC2IEThmlu0xpvRNLi6-5" target="vDC2IEThmlu0xpvRNLi6-6">
          <mxGeometry relative="1" as="geometry" />
        </mxCell>
        <mxCell id="vDC2IEThmlu0xpvRNLi6-5" value="Modify profile data&lt;br&gt;" style="rounded=0;whiteSpace=wrap;html=1;" vertex="1" parent="1">
          <mxGeometry x="315" y="230" width="120" height="60" as="geometry" />
        </mxCell>
        <mxCell id="vDC2IEThmlu0xpvRNLi6-8" value="Invalid data&lt;br&gt;" style="edgeStyle=orthogonalEdgeStyle;rounded=0;orthogonalLoop=1;jettySize=auto;html=1;entryX=0;entryY=0.5;entryDx=0;entryDy=0;" edge="1" parent="1" source="vDC2IEThmlu0xpvRNLi6-6" target="vDC2IEThmlu0xpvRNLi6-5">
          <mxGeometry relative="1" as="geometry">
            <Array as="points">
              <mxPoint x="230" y="440" />
              <mxPoint x="230" y="260" />
            </Array>
          </mxGeometry>
        </mxCell>
        <mxCell id="vDC2IEThmlu0xpvRNLi6-10" value="" style="edgeStyle=orthogonalEdgeStyle;rounded=0;orthogonalLoop=1;jettySize=auto;html=1;" edge="1" parent="1" source="vDC2IEThmlu0xpvRNLi6-6" target="vDC2IEThmlu0xpvRNLi6-9">
          <mxGeometry relative="1" as="geometry" />
        </mxCell>
        <mxCell id="vDC2IEThmlu0xpvRNLi6-6" value="Validate modifications&lt;br&gt;" style="rhombus;whiteSpace=wrap;html=1;rounded=0;" vertex="1" parent="1">
          <mxGeometry x="327.5" y="390" width="95" height="100" as="geometry" />
        </mxCell>
        <mxCell id="vDC2IEThmlu0xpvRNLi6-12" value="" style="edgeStyle=orthogonalEdgeStyle;rounded=0;orthogonalLoop=1;jettySize=auto;html=1;" edge="1" parent="1" source="vDC2IEThmlu0xpvRNLi6-9" target="vDC2IEThmlu0xpvRNLi6-11">
          <mxGeometry relative="1" as="geometry" />
        </mxCell>
        <mxCell id="vDC2IEThmlu0xpvRNLi6-9" value="Send data to engine&lt;br&gt;" style="whiteSpace=wrap;html=1;rounded=0;" vertex="1" parent="1">
          <mxGeometry x="315" y="610" width="120" height="60" as="geometry" />
        </mxCell>
        <mxCell id="vDC2IEThmlu0xpvRNLi6-11" value="Update data in DB" style="whiteSpace=wrap;html=1;rounded=0;" vertex="1" parent="1">
          <mxGeometry x="315" y="800" width="120" height="60" as="geometry" />
        </mxCell>
      </root>
    </mxGraphModel>
  </diagram>
</mxfile>
